STARTFONT 2.1
FONT -FontForge-Tahoma-Normal-R-Normal--11-80-96-96-P-62-ISO10646-1
SIZE 8 96 96
FONTBOUNDINGBOX 17 15 -1 -3
COMMENT "Generated by fontforge, http://fontforge.sourceforge.net"
COMMENT "Created by Thinkpad,U-LUNACY-INC\Thinkpad,S-1-5-21-507921405- with FontForge 1.0 (http://fontforge.sf.net)"
STARTPROPERTIES 32
FOUNDRY "FontForge"
FAMILY_NAME "Tahoma"
WEIGHT_NAME "Normal"
SLANT "R"
SETWIDTH_NAME "Normal"
ADD_STYLE_NAME ""
PIXEL_SIZE 11
POINT_SIZE 80
RESOLUTION_X 96
RESOLUTION_Y 96
SPACING "P"
AVERAGE_WIDTH 62
CHARSET_REGISTRY "ISO10646"
CHARSET_ENCODING "1"
FONTNAME_REGISTRY ""
CHARSET_COLLECTIONS "ISO8859-2 ISO8859-5 ISO8859-9 ISO8859-8 ISO8859-6 ISO10646-1"
FONT_NAME "WineTahomaBold"
FACE_NAME "Tahoma"
FONT_VERSION "001.000"
FONT_ASCENT 9
FONT_DESCENT 2
UNDERLINE_POSITION -1
UNDERLINE_THICKNESS 1
X_HEIGHT 5
CAP_HEIGHT 7
RAW_ASCENT 806
RAW_DESCENT 194
RELATIVE_WEIGHT 40
RELATIVE_SETWIDTH 50
FIGURE_WIDTH 6
AVG_LOWERCASE_WIDTH 55
AVG_UPPERCASE_WIDTH 66
ENDPROPERTIES
CHARS 436
STARTCHAR exclam
ENCODING 33
SWIDTH 342 0
DWIDTH 5 0
BBX 2 8 1 0
BITMAP
C0
C0
C0
C0
C0
C0
00
C0
ENDCHAR
STARTCHAR quotedbl
ENCODING 34
SWIDTH 489 0
DWIDTH 5 0
BBX 4 3 0 6
BITMAP
F0
F0
F0
ENDCHAR
STARTCHAR numbersign
ENCODING 35
SWIDTH 818 0
DWIDTH 9 0
BBX 8 8 0 0
BITMAP
1E
1E
7F
3C
3C
FE
78
78
ENDCHAR
STARTCHAR dollar
ENCODING 36
SWIDTH 636 0
DWIDTH 7 0
BBX 6 11 0 -2
BITMAP
30
30
7C
F0
F0
78
3C
3C
F8
30
30
ENDCHAR
STARTCHAR percent
ENCODING 37
SWIDTH 1198 0
DWIDTH 13 0
BBX 11 8 0 0
BITMAP
7300
DB00
DE00
7600
0DC0
0F60
1B60
19C0
ENDCHAR
STARTCHAR ampersand
ENCODING 38
SWIDTH 781 0
DWIDTH 9 0
BBX 7 8 1 0
BITMAP
78
C0
C0
60
F6
DC
CC
7E
ENDCHAR
STARTCHAR quotesingle
ENCODING 39
SWIDTH 275 0
DWIDTH 3 0
BBX 2 3 0 6
BITMAP
C0
C0
C0
ENDCHAR
STARTCHAR parenleft
ENCODING 40
SWIDTH 454 0
DWIDTH 5 0
BBX 4 11 0 -2
BITMAP
30
60
60
C0
C0
C0
C0
C0
60
60
30
ENDCHAR
STARTCHAR parenright
ENCODING 41
SWIDTH 454 0
DWIDTH 5 0
BBX 4 11 0 -2
BITMAP
C0
60
60
30
30
30
30
30
60
60
C0
ENDCHAR
STARTCHAR asterisk
ENCODING 42
SWIDTH 636 0
DWIDTH 7 0
BBX 6 5 0 4
BITMAP
30
FC
78
FC
30
ENDCHAR
STARTCHAR plus
ENCODING 43
SWIDTH 818 0
DWIDTH 9 0
BBX 8 7 0 0
BITMAP
18
18
18
FF
18
18
18
ENDCHAR
STARTCHAR comma
ENCODING 44
SWIDTH 312 0
DWIDTH 3 0
BBX 3 4 0 -2
BITMAP
60
60
60
C0
ENDCHAR
STARTCHAR hyphen
ENCODING 45
SWIDTH 431 0
DWIDTH 5 0
BBX 4 1 0 3
BITMAP
F0
ENDCHAR
STARTCHAR period
ENCODING 46
SWIDTH 312 0
DWIDTH 3 0
BBX 2 2 1 0
BITMAP
C0
C0
ENDCHAR
STARTCHAR slash
ENCODING 47
SWIDTH 577 0
DWIDTH 6 0
BBX 4 11 0 -2
BITMAP
30
30
30
60
60
60
60
60
C0
C0
C0
ENDCHAR
STARTCHAR zero
ENCODING 48
SWIDTH 636 0
DWIDTH 7 0
BBX 6 8 0 0
BITMAP
78
CC
CC
CC
CC
CC
CC
78
ENDCHAR
STARTCHAR one
ENCODING 49
SWIDTH 636 0
DWIDTH 7 0
BBX 4 8 1 0
BITMAP
E0
60
60
60
60
60
60
F0
ENDCHAR
STARTCHAR two
ENCODING 50
SWIDTH 636 0
DWIDTH 7 0
BBX 6 8 0 0
BITMAP
78
CC
0C
18
30
60
C0
FC
ENDCHAR
STARTCHAR three
ENCODING 51
SWIDTH 636 0
DWIDTH 7 0
BBX 6 8 0 0
BITMAP
78
CC
0C
38
0C
0C
CC
78
ENDCHAR
STARTCHAR four
ENCODING 52
SWIDTH 636 0
DWIDTH 7 0
BBX 6 8 0 0
BITMAP
18
38
78
D8
FC
18
18
18
ENDCHAR
STARTCHAR five
ENCODING 53
SWIDTH 636 0
DWIDTH 7 0
BBX 6 8 0 0
BITMAP
FC
C0
C0
F8
0C
0C
CC
78
ENDCHAR
STARTCHAR six
ENCODING 54
SWIDTH 636 0
DWIDTH 7 0
BBX 6 8 0 0
BITMAP
38
60
C0
F8
CC
CC
CC
78
ENDCHAR
STARTCHAR seven
ENCODING 55
SWIDTH 636 0
DWIDTH 7 0
BBX 6 8 0 0
BITMAP
FC
0C
18
18
30
30
60
60
ENDCHAR
STARTCHAR eight
ENCODING 56
SWIDTH 636 0
DWIDTH 7 0
BBX 6 8 0 0
BITMAP
78
CC
CC
78
CC
CC
CC
78
ENDCHAR
STARTCHAR nine
ENCODING 57
SWIDTH 636 0
DWIDTH 7 0
BBX 6 8 0 0
BITMAP
78
CC
CC
CC
7C
0C
18
70
ENDCHAR
STARTCHAR colon
ENCODING 58
SWIDTH 363 0
DWIDTH 4 0
BBX 2 6 1 0
BITMAP
C0
C0
00
00
C0
C0
ENDCHAR
STARTCHAR semicolon
ENCODING 59
SWIDTH 363 0
DWIDTH 4 0
BBX 3 8 0 -2
BITMAP
60
60
00
00
60
60
60
C0
ENDCHAR
STARTCHAR less
ENCODING 60
SWIDTH 818 0
DWIDTH 9 0
BBX 7 7 1 0
BITMAP
06
1C
70
C0
70
1C
06
ENDCHAR
STARTCHAR equal
ENCODING 61
SWIDTH 818 0
DWIDTH 9 0
BBX 8 3 0 2
BITMAP
FF
00
FF
ENDCHAR
STARTCHAR greater
ENCODING 62
SWIDTH 818 0
DWIDTH 9 0
BBX 7 7 1 0
BITMAP
C0
70
1C
06
1C
70
C0
ENDCHAR
STARTCHAR question
ENCODING 63
SWIDTH 566 0
DWIDTH 6 0
BBX 5 8 0 0
BITMAP
F0
18
18
30
60
60
00
60
ENDCHAR
STARTCHAR at
ENCODING 64
SWIDTH 919 0
DWIDTH 10 0
BBX 10 9 0 -1
BITMAP
3F00
6180
DEC0
F6C0
F6C0
F6C0
DF80
6000
3E00
ENDCHAR
STARTCHAR A
ENCODING 65
SWIDTH 684 0
DWIDTH 8 0
BBX 7 8 0 0
BITMAP
38
38
6C
6C
6C
FE
C6
C6
ENDCHAR
STARTCHAR B
ENCODING 66
SWIDTH 686 0
DWIDTH 8 0
BBX 6 8 0 0
BITMAP
F0
CC
CC
F0
CC
CC
CC
F0
ENDCHAR
STARTCHAR C
ENCODING 67
SWIDTH 667 0
DWIDTH 7 0
BBX 7 8 0 0
BITMAP
3C
66
C0
C0
C0
C0
66
3C
ENDCHAR
STARTCHAR D
ENCODING 68
SWIDTH 757 0
DWIDTH 8 0
BBX 7 8 0 0
BITMAP
F8
CC
C6
C6
C6
C6
CC
F8
ENDCHAR
STARTCHAR E
ENCODING 69
SWIDTH 615 0
DWIDTH 7 0
BBX 6 8 0 0
BITMAP
FC
C0
C0
F8
C0
C0
C0
FC
ENDCHAR
STARTCHAR F
ENCODING 70
SWIDTH 581 0
DWIDTH 6 0
BBX 6 8 0 0
BITMAP
FC
C0
C0
FC
C0
C0
C0
C0
ENDCHAR
STARTCHAR G
ENCODING 71
SWIDTH 745 0
DWIDTH 8 0
BBX 7 8 0 0
BITMAP
3E
60
C0
C0
DE
C6
66
3E
ENDCHAR
STARTCHAR H
ENCODING 72
SWIDTH 764 0
DWIDTH 8 0
BBX 7 8 0 0
BITMAP
C6
C6
C6
FE
C6
C6
C6
C6
ENDCHAR
STARTCHAR I
ENCODING 73
SWIDTH 483 0
DWIDTH 5 0
BBX 4 8 0 0
BITMAP
F0
60
60
60
60
60
60
F0
ENDCHAR
STARTCHAR J
ENCODING 74
SWIDTH 500 0
DWIDTH 6 0
BBX 4 10 0 -2
BITMAP
30
30
30
30
30
30
30
30
30
E0
ENDCHAR
STARTCHAR K
ENCODING 75
SWIDTH 696 0
DWIDTH 8 0
BBX 6 8 0 0
BITMAP
CC
D8
F0
E0
E0
F0
D8
CC
ENDCHAR
STARTCHAR L
ENCODING 76
SWIDTH 572 0
DWIDTH 6 0
BBX 5 8 0 0
BITMAP
C0
C0
C0
C0
C0
C0
C0
F8
ENDCHAR
STARTCHAR M
ENCODING 77
SWIDTH 893 0
DWIDTH 10 0
BBX 8 8 0 0
BITMAP
E7
E7
FF
FF
DB
DB
C3
C3
ENDCHAR
STARTCHAR N
ENCODING 78
SWIDTH 770 0
DWIDTH 8 0
BBX 7 8 0 0
BITMAP
E6
E6
F6
F6
DE
DE
CE
CE
ENDCHAR
STARTCHAR O
ENCODING 79
SWIDTH 770 0
DWIDTH 8 0
BBX 8 8 0 0
BITMAP
3C
66
C3
C3
C3
C3
66
3C
ENDCHAR
STARTCHAR P
ENCODING 80
SWIDTH 657 0
DWIDTH 7 0
BBX 6 8 0 0
BITMAP
F8
CC
CC
CC
F8
C0
C0
C0
ENDCHAR
STARTCHAR Q
ENCODING 81
SWIDTH 770 0
DWIDTH 8 0
BBX 8 9 0 -1
BITMAP
3C
66
C3
C3
C3
C3
7E
3C
06
ENDCHAR
STARTCHAR R
ENCODING 82
SWIDTH 726 0
DWIDTH 8 0
BBX 7 8 0 0
BITMAP
F8
CC
CC
CC
F8
D8
CC
C6
ENDCHAR
STARTCHAR S
ENCODING 83
SWIDTH 633 0
DWIDTH 7 0
BBX 6 8 0 0
BITMAP
7C
C0
C0
78
0C
0C
0C
F8
ENDCHAR
STARTCHAR T
ENCODING 84
SWIDTH 612 0
DWIDTH 7 0
BBX 6 8 0 0
BITMAP
FC
30
30
30
30
30
30
30
ENDCHAR
STARTCHAR U
ENCODING 85
SWIDTH 738 0
DWIDTH 9 0
BBX 7 8 0 0
BITMAP
C6
C6
C6
C6
C6
C6
C6
7C
ENDCHAR
STARTCHAR V
ENCODING 86
SWIDTH 674 0
DWIDTH 7 0
BBX 6 8 0 0
BITMAP
CC
CC
CC
78
78
78
30
30
ENDCHAR
STARTCHAR W
ENCODING 87
SWIDTH 1027 0
DWIDTH 11 0
BBX 10 8 0 0
BITMAP
CCC0
CCC0
CCC0
7F80
7F80
7F80
3300
3300
ENDCHAR
STARTCHAR X
ENCODING 88
SWIDTH 684 0
DWIDTH 8 0
BBX 6 8 0 0
BITMAP
CC
CC
78
30
30
78
CC
CC
ENDCHAR
STARTCHAR Y
ENCODING 89
SWIDTH 670 0
DWIDTH 7 0
BBX 6 8 0 0
BITMAP
CC
CC
78
78
30
30
30
30
ENDCHAR
STARTCHAR Z
ENCODING 90
SWIDTH 622 0
DWIDTH 8 0
BBX 6 8 0 0
BITMAP
FC
0C
18
30
30
60
C0
FC
ENDCHAR
STARTCHAR bracketleft
ENCODING 91
SWIDTH 454 0
DWIDTH 5 0
BBX 4 11 0 -2
BITMAP
F0
C0
C0
C0
C0
C0
C0
C0
C0
C0
F0
ENDCHAR
STARTCHAR backslash
ENCODING 92
SWIDTH 577 0
DWIDTH 6 0
BBX 4 11 0 -2
BITMAP
C0
C0
C0
60
60
60
60
60
30
30
30
ENDCHAR
STARTCHAR bracketright
ENCODING 93
SWIDTH 454 0
DWIDTH 5 0
BBX 4 11 0 -2
BITMAP
F0
30
30
30
30
30
30
30
30
30
F0
ENDCHAR
STARTCHAR asciicircum
ENCODING 94
SWIDTH 818 0
DWIDTH 9 0
BBX 8 4 0 4
BITMAP
18
3C
66
C3
ENDCHAR
STARTCHAR underscore
ENCODING 95
SWIDTH 636 0
DWIDTH 7 0
BBX 7 1 0 -2
BITMAP
FE
ENDCHAR
STARTCHAR grave
ENCODING 96
SWIDTH 545 0
DWIDTH 6 0
BBX 3 2 1 7
BITMAP
C0
60
ENDCHAR
STARTCHAR a
ENCODING 97
SWIDTH 598 0
DWIDTH 7 0
BBX 6 6 0 0
BITMAP
78
0C
7C
CC
CC
7C
ENDCHAR
STARTCHAR b
ENCODING 98
SWIDTH 631 0
DWIDTH 7 0
BBX 6 9 0 0
BITMAP
C0
C0
C0
F8
CC
CC
CC
CC
F8
ENDCHAR
STARTCHAR c
ENCODING 99
SWIDTH 527 0
DWIDTH 6 0
BBX 5 6 0 0
BITMAP
78
C0
C0
C0
C0
78
ENDCHAR
STARTCHAR d
ENCODING 100
SWIDTH 629 0
DWIDTH 8 0
BBX 6 9 0 0
BITMAP
0C
0C
0C
7C
CC
CC
CC
CC
7C
ENDCHAR
STARTCHAR e
ENCODING 101
SWIDTH 593 0
DWIDTH 7 0
BBX 6 6 0 0
BITMAP
78
CC
FC
C0
CC
78
ENDCHAR
STARTCHAR f
ENCODING 102
SWIDTH 382 0
DWIDTH 4 0
BBX 4 9 0 0
BITMAP
70
C0
C0
F0
C0
C0
C0
C0
C0
ENDCHAR
STARTCHAR g
ENCODING 103
SWIDTH 629 0
DWIDTH 8 0
BBX 6 8 0 -2
BITMAP
7C
CC
CC
CC
CC
7C
0C
78
ENDCHAR
STARTCHAR h
ENCODING 104
SWIDTH 640 0
DWIDTH 8 0
BBX 6 9 0 0
BITMAP
C0
C0
C0
F8
CC
CC
CC
CC
CC
ENDCHAR
STARTCHAR i
ENCODING 105
SWIDTH 301 0
DWIDTH 4 0
BBX 2 8 0 0
BITMAP
C0
00
C0
C0
C0
C0
C0
C0
ENDCHAR
STARTCHAR j
ENCODING 106
SWIDTH 362 0
DWIDTH 4 0
BBX 3 10 0 -2
BITMAP
60
00
60
60
60
60
60
60
60
C0
ENDCHAR
STARTCHAR k
ENCODING 107
SWIDTH 602 0
DWIDTH 7 0
BBX 6 9 0 0
BITMAP
C0
C0
C0
D8
F0
E0
F0
D8
CC
ENDCHAR
STARTCHAR l
ENCODING 108
SWIDTH 301 0
DWIDTH 4 0
BBX 2 9 0 0
BITMAP
C0
C0
C0
C0
C0
C0
C0
C0
C0
ENDCHAR
STARTCHAR m
ENCODING 109
SWIDTH 953 0
DWIDTH 10 0
BBX 8 6 0 0
BITMAP
FE
DB
DB
DB
DB
DB
ENDCHAR
STARTCHAR n
ENCODING 110
SWIDTH 640 0
DWIDTH 8 0
BBX 6 6 0 0
BITMAP
F8
CC
CC
CC
CC
CC
ENDCHAR
STARTCHAR o
ENCODING 111
SWIDTH 617 0
DWIDTH 7 0
BBX 6 6 0 0
BITMAP
78
CC
CC
CC
CC
78
ENDCHAR
STARTCHAR p
ENCODING 112
SWIDTH 629 0
DWIDTH 8 0
BBX 6 8 0 -2
BITMAP
F8
CC
CC
CC
CC
F8
C0
C0
ENDCHAR
STARTCHAR q
ENCODING 113
SWIDTH 629 0
DWIDTH 8 0
BBX 6 8 0 -2
BITMAP
7C
CC
CC
CC
CC
7C
0C
0C
ENDCHAR
STARTCHAR r
ENCODING 114
SWIDTH 433 0
DWIDTH 5 0
BBX 4 6 0 0
BITMAP
F0
E0
C0
C0
C0
C0
ENDCHAR
STARTCHAR s
ENCODING 115
SWIDTH 514 0
DWIDTH 7 0
BBX 5 6 0 0
BITMAP
78
C0
E0
38
18
F0
ENDCHAR
STARTCHAR t
ENCODING 116
SWIDTH 415 0
DWIDTH 5 0
BBX 4 8 0 0
BITMAP
C0
C0
F0
C0
C0
C0
C0
70
ENDCHAR
STARTCHAR u
ENCODING 117
SWIDTH 640 0
DWIDTH 8 0
BBX 6 6 0 0
BITMAP
CC
CC
CC
CC
CC
7C
ENDCHAR
STARTCHAR v
ENCODING 118
SWIDTH 578 0
DWIDTH 7 0
BBX 6 6 0 0
BITMAP
CC
CC
78
78
30
30
ENDCHAR
STARTCHAR w
ENCODING 119
SWIDTH 889 0
DWIDTH 10 0
BBX 8 6 0 0
BITMAP
DB
DB
FF
FF
66
66
ENDCHAR
STARTCHAR x
ENCODING 120
SWIDTH 604 0
DWIDTH 7 0
BBX 6 6 0 0
BITMAP
CC
78
30
30
78
CC
ENDCHAR
STARTCHAR y
ENCODING 121
SWIDTH 575 0
DWIDTH 6 0
BBX 6 8 0 -2
BITMAP
CC
CC
78
78
30
30
60
60
ENDCHAR
STARTCHAR z
ENCODING 122
SWIDTH 502 0
DWIDTH 6 0
BBX 5 6 0 0
BITMAP
F8
18
30
60
C0
F8
ENDCHAR
STARTCHAR braceleft
ENCODING 123
SWIDTH 623 0
DWIDTH 7 0
BBX 5 11 0 -2
BITMAP
18
30
30
30
30
E0
30
30
30
30
18
ENDCHAR
STARTCHAR bar
ENCODING 124
SWIDTH 636 0
DWIDTH 7 0
BBX 2 11 1 -2
BITMAP
C0
C0
C0
C0
C0
C0
C0
C0
C0
C0
C0
ENDCHAR
STARTCHAR braceright
ENCODING 125
SWIDTH 623 0
DWIDTH 7 0
BBX 5 11 0 -2
BITMAP
C0
60
60
60
60
38
60
60
60
60
C0
ENDCHAR
STARTCHAR asciitilde
ENCODING 126
SWIDTH 818 0
DWIDTH 9 0
BBX 8 3 0 2
BITMAP
73
DB
CE
ENDCHAR
STARTCHAR uni007F
ENCODING 127
SWIDTH 488 0
DWIDTH 12 0
BBX 9 8 1 0
BITMAP
FF80
C180
C180
C180
C180
C180
C180
FF80
ENDCHAR
STARTCHAR uni00A0
ENCODING 160
SWIDTH 292 0
DWIDTH 3 0
BBX 1 1 0 0
BITMAP
00
ENDCHAR
STARTCHAR exclamdown
ENCODING 161
SWIDTH 342 0
DWIDTH 5 0
BBX 2 8 1 0
BITMAP
C0
00
C0
C0
C0
C0
C0
C0
ENDCHAR
STARTCHAR cent
ENCODING 162
SWIDTH 636 0
DWIDTH 7 0
BBX 6 10 0 -2
BITMAP
30
30
7C
F0
F0
F0
F0
7C
30
30
ENDCHAR
STARTCHAR sterling
ENCODING 163
SWIDTH 636 0
DWIDTH 7 0
BBX 6 8 0 0
BITMAP
3C
60
60
60
F8
60
60
FC
ENDCHAR
STARTCHAR currency
ENCODING 164
SWIDTH 636 0
DWIDTH 7 0
BBX 6 5 0 1
BITMAP
CC
78
78
78
CC
ENDCHAR
STARTCHAR yen
ENCODING 165
SWIDTH 636 0
DWIDTH 7 0
BBX 6 8 0 0
BITMAP
CC
78
78
30
30
FC
30
30
ENDCHAR
STARTCHAR brokenbar
ENCODING 166
SWIDTH 636 0
DWIDTH 5 0
BBX 2 11 1 -2
BITMAP
C0
C0
C0
C0
00
00
C0
C0
C0
C0
C0
ENDCHAR
STARTCHAR section
ENCODING 167
SWIDTH 636 0
DWIDTH 7 0
BBX 6 10 0 -2
BITMAP
7C
C0
C0
78
CC
CC
78
0C
0C
F8
ENDCHAR
STARTCHAR dieresis
ENCODING 168
SWIDTH 545 0
DWIDTH 7 0
BBX 5 1 1 7
BITMAP
D8
ENDCHAR
STARTCHAR copyright
ENCODING 169
SWIDTH 928 0
DWIDTH 11 0
BBX 10 9 0 -1
BITMAP
3F00
6180
DEC0
F0C0
F0C0
F0C0
DEC0
6180
3F00
ENDCHAR
STARTCHAR ordfeminine
ENCODING 170
SWIDTH 507 0
DWIDTH 6 0
BBX 5 5 0 3
BITMAP
F0
18
78
D8
78
ENDCHAR
STARTCHAR guillemotleft
ENCODING 171
SWIDTH 703 0
DWIDTH 7 0
BBX 6 5 0 1
BITMAP
3C
78
F0
78
3C
ENDCHAR
STARTCHAR logicalnot
ENCODING 172
SWIDTH 818 0
DWIDTH 9 0
BBX 7 4 1 0
BITMAP
FE
06
06
06
ENDCHAR
STARTCHAR uni00AD
ENCODING 173
SWIDTH 431 0
DWIDTH 5 0
BBX 4 1 0 3
BITMAP
F0
ENDCHAR
STARTCHAR registered
ENCODING 174
SWIDTH 928 0
DWIDTH 11 0
BBX 10 9 0 -1
BITMAP
3F00
6180
DEC0
DBC0
DEC0
DEC0
DBC0
6180
3F00
ENDCHAR
STARTCHAR degree
ENCODING 176
SWIDTH 519 0
DWIDTH 6 0
BBX 5 4 0 4
BITMAP
70
D8
D8
70
ENDCHAR
STARTCHAR plusminus
ENCODING 177
SWIDTH 818 0
DWIDTH 9 0
BBX 8 7 0 1
BITMAP
18
18
18
FF
18
18
FF
ENDCHAR
STARTCHAR uni00B2
ENCODING 178
SWIDTH 539 0
DWIDTH 6 0
BBX 4 5 1 3
BITMAP
E0
30
30
60
F0
ENDCHAR
STARTCHAR uni00B3
ENCODING 179
SWIDTH 539 0
DWIDTH 6 0
BBX 4 5 1 3
BITMAP
E0
30
60
30
E0
ENDCHAR
STARTCHAR acute
ENCODING 180
SWIDTH 545 0
DWIDTH 7 0
BBX 3 2 2 7
BITMAP
60
C0
ENDCHAR
STARTCHAR uni00B5
ENCODING 181
SWIDTH 650 0
DWIDTH 7 0
BBX 6 8 0 -2
BITMAP
CC
CC
CC
CC
DC
FC
C0
C0
ENDCHAR
STARTCHAR paragraph
ENCODING 182
SWIDTH 636 0
DWIDTH 7 0
BBX 6 10 0 -2
BITMAP
7C
FC
FC
FC
7C
3C
3C
3C
3C
3C
ENDCHAR
STARTCHAR periodcentered
ENCODING 183
SWIDTH 363 0
DWIDTH 5 0
BBX 2 2 1 4
BITMAP
C0
C0
ENDCHAR
STARTCHAR cedilla
ENCODING 184
SWIDTH 527 0
DWIDTH 7 0
BBX 4 2 2 -2
BITMAP
30
E0
ENDCHAR
STARTCHAR uni00B9
ENCODING 185
SWIDTH 539 0
DWIDTH 6 0
BBX 4 5 1 3
BITMAP
E0
60
60
60
F0
ENDCHAR
STARTCHAR ordmasculine
ENCODING 186
SWIDTH 539 0
DWIDTH 6 0
BBX 5 5 0 3
BITMAP
70
D8
D8
D8
70
ENDCHAR
STARTCHAR guillemotright
ENCODING 187
SWIDTH 703 0
DWIDTH 7 0
BBX 6 5 0 1
BITMAP
F0
78
3C
78
F0
ENDCHAR
STARTCHAR onequarter
ENCODING 188
SWIDTH 1127 0
DWIDTH 12 0
BBX 10 8 1 0
BITMAP
E300
6600
6600
6D80
FF80
1F80
1FC0
3180
ENDCHAR
STARTCHAR onehalf
ENCODING 189
SWIDTH 1127 0
DWIDTH 12 0
BBX 10 8 1 0
BITMAP
E300
6600
6600
6F80
FCC0
18C0
1980
33C0
ENDCHAR
STARTCHAR threequarters
ENCODING 190
SWIDTH 1127 0
DWIDTH 12 0
BBX 10 8 1 0
BITMAP
F300
1E00
7600
1D80
FF80
1F80
1FC0
3180
ENDCHAR
STARTCHAR questiondown
ENCODING 191
SWIDTH 566 0
DWIDTH 6 0
BBX 5 8 0 0
BITMAP
30
00
30
30
60
C0
C0
78
ENDCHAR
STARTCHAR Agrave
ENCODING 192
SWIDTH 684 0
DWIDTH 8 0
BBX 7 11 0 0
BITMAP
30
18
00
38
38
6C
6C
6C
FE
C6
C6
ENDCHAR
STARTCHAR Aacute
ENCODING 193
SWIDTH 684 0
DWIDTH 8 0
BBX 7 11 0 0
BITMAP
18
30
00
38
38
6C
6C
6C
FE
C6
C6
ENDCHAR
STARTCHAR Acircumflex
ENCODING 194
SWIDTH 684 0
DWIDTH 8 0
BBX 7 12 0 0
BITMAP
10
38
6C
00
38
38
6C
6C
6C
FE
C6
C6
ENDCHAR
STARTCHAR Atilde
ENCODING 195
SWIDTH 684 0
DWIDTH 8 0
BBX 7 11 0 0
BITMAP
74
5C
00
38
38
6C
6C
6C
FE
C6
C6
ENDCHAR
STARTCHAR Adieresis
ENCODING 196
SWIDTH 684 0
DWIDTH 8 0
BBX 7 10 0 0
BITMAP
6C
00
38
38
6C
6C
6C
FE
C6
C6
ENDCHAR
STARTCHAR Aring
ENCODING 197
SWIDTH 684 0
DWIDTH 8 0
BBX 7 11 0 0
BITMAP
38
6C
6C
38
38
6C
6C
6C
FE
C6
C6
ENDCHAR
STARTCHAR AE
ENCODING 198
SWIDTH 988 0
DWIDTH 11 0
BBX 10 8 0 0
BITMAP
3FC0
3C00
6C00
6F80
7C00
CC00
CC00
CFC0
ENDCHAR
STARTCHAR Ccedilla
ENCODING 199
SWIDTH 667 0
DWIDTH 8 0
BBX 7 10 0 -2
BITMAP
3E
60
C0
C0
C0
C0
60
3E
0C
38
ENDCHAR
STARTCHAR Egrave
ENCODING 200
SWIDTH 683 0
DWIDTH 8 0
BBX 6 11 0 0
BITMAP
30
18
00
FC
C0
C0
F8
C0
C0
C0
FC
ENDCHAR
STARTCHAR Eacute
ENCODING 201
SWIDTH 683 0
DWIDTH 8 0
BBX 6 11 0 0
BITMAP
18
30
00
FC
C0
C0
F8
C0
C0
C0
FC
ENDCHAR
STARTCHAR Ecircumflex
ENCODING 202
SWIDTH 683 0
DWIDTH 8 0
BBX 6 11 0 0
BITMAP
38
6C
00
FC
C0
C0
F8
C0
C0
C0
FC
ENDCHAR
STARTCHAR Edieresis
ENCODING 203
SWIDTH 683 0
DWIDTH 8 0
BBX 6 10 0 0
BITMAP
CC
00
FC
C0
C0
F8
C0
C0
C0
FC
ENDCHAR
STARTCHAR Igrave
ENCODING 204
SWIDTH 483 0
DWIDTH 5 0
BBX 4 11 0 0
BITMAP
C0
60
00
F0
60
60
60
60
60
60
F0
ENDCHAR
STARTCHAR Iacute
ENCODING 205
SWIDTH 483 0
DWIDTH 5 0
BBX 4 11 0 0
BITMAP
30
60
00
F0
60
60
60
60
60
60
F0
ENDCHAR
STARTCHAR Icircumflex
ENCODING 206
SWIDTH 483 0
DWIDTH 5 0
BBX 5 12 0 0
BITMAP
20
70
D8
00
F0
60
60
60
60
60
60
F0
ENDCHAR
STARTCHAR Idieresis
ENCODING 207
SWIDTH 483 0
DWIDTH 5 0
BBX 4 10 0 0
BITMAP
F0
00
F0
60
60
60
60
60
60
F0
ENDCHAR
STARTCHAR Eth
ENCODING 208
SWIDTH 773 0
DWIDTH 9 0
BBX 8 8 0 0
BITMAP
7C
66
63
FB
63
63
66
7C
ENDCHAR
STARTCHAR Ntilde
ENCODING 209
SWIDTH 836 0
DWIDTH 9 0
BBX 7 11 0 0
BITMAP
EC
DC
00
E6
E6
F6
F6
DE
DE
CE
CE
ENDCHAR
STARTCHAR Ograve
ENCODING 210
SWIDTH 850 0
DWIDTH 9 0
BBX 8 11 0 0
BITMAP
30
18
00
3C
66
C3
C3
C3
C3
66
3C
ENDCHAR
STARTCHAR Oacute
ENCODING 211
SWIDTH 850 0
DWIDTH 9 0
BBX 8 11 0 0
BITMAP
0C
18
00
3C
66
C3
C3
C3
C3
66
3C
ENDCHAR
STARTCHAR Ocircumflex
ENCODING 212
SWIDTH 850 0
DWIDTH 9 0
BBX 8 11 0 0
BITMAP
3C
66
00
3C
66
C3
C3
C3
C3
66
3C
ENDCHAR
STARTCHAR Otilde
ENCODING 213
SWIDTH 850 0
DWIDTH 9 0
BBX 8 11 0 0
BITMAP
7A
5E
00
3C
66
C3
C3
C3
C3
66
3C
ENDCHAR
STARTCHAR Odieresis
ENCODING 214
SWIDTH 850 0
DWIDTH 9 0
BBX 8 10 0 0
BITMAP
66
00
3C
66
C3
C3
C3
C3
66
3C
ENDCHAR
STARTCHAR multiply
ENCODING 215
SWIDTH 818 0
DWIDTH 9 0
BBX 6 5 2 1
BITMAP
CC
78
30
78
CC
ENDCHAR
STARTCHAR Oslash
ENCODING 216
SWIDTH 770 0
DWIDTH 9 0
BBX 8 8 0 0
BITMAP
3F
66
CF
DB
DB
F3
66
FC
ENDCHAR
STARTCHAR Ugrave
ENCODING 217
SWIDTH 812 0
DWIDTH 9 0
BBX 7 11 0 0
BITMAP
30
18
00
C6
C6
C6
C6
C6
C6
C6
7C
ENDCHAR
STARTCHAR Uacute
ENCODING 218
SWIDTH 812 0
DWIDTH 9 0
BBX 7 11 0 0
BITMAP
18
30
00
C6
C6
C6
C6
C6
C6
C6
7C
ENDCHAR
STARTCHAR Ucircumflex
ENCODING 219
SWIDTH 812 0
DWIDTH 9 0
BBX 7 11 0 0
BITMAP
38
6C
00
C6
C6
C6
C6
C6
C6
C6
7C
ENDCHAR
STARTCHAR Udieresis
ENCODING 220
SWIDTH 812 0
DWIDTH 9 0
BBX 7 10 0 0
BITMAP
6C
00
C6
C6
C6
C6
C6
C6
C6
7C
ENDCHAR
STARTCHAR Yacute
ENCODING 221
SWIDTH 724 0
DWIDTH 8 0
BBX 6 11 0 0
BITMAP
18
30
00
CC
CC
78
78
30
30
30
30
ENDCHAR
STARTCHAR Thorn
ENCODING 222
SWIDTH 659 0
DWIDTH 7 0
BBX 6 8 0 0
BITMAP
C0
C0
F8
CC
CC
F8
C0
C0
ENDCHAR
STARTCHAR germandbls
ENCODING 223
SWIDTH 645 0
DWIDTH 7 0
BBX 6 8 1 0
BITMAP
70
D8
D8
F0
D8
CC
CC
F8
ENDCHAR
STARTCHAR agrave
ENCODING 224
SWIDTH 674 0
DWIDTH 7 0
BBX 6 9 0 0
BITMAP
30
18
00
78
0C
7C
CC
CC
7C
ENDCHAR
STARTCHAR aacute
ENCODING 225
SWIDTH 674 0
DWIDTH 7 0
BBX 6 9 0 0
BITMAP
18
30
00
78
0C
7C
CC
CC
7C
ENDCHAR
STARTCHAR acircumflex
ENCODING 226
SWIDTH 674 0
DWIDTH 7 0
BBX 6 10 0 0
BITMAP
10
38
6C
00
78
0C
7C
CC
CC
7C
ENDCHAR
STARTCHAR atilde
ENCODING 227
SWIDTH 674 0
DWIDTH 7 0
BBX 6 9 0 0
BITMAP
F4
BC
00
78
0C
7C
CC
CC
7C
ENDCHAR
STARTCHAR adieresis
ENCODING 228
SWIDTH 674 0
DWIDTH 7 0
BBX 6 8 0 0
BITMAP
6C
00
78
0C
7C
CC
CC
7C
ENDCHAR
STARTCHAR aring
ENCODING 229
SWIDTH 674 0
DWIDTH 7 0
BBX 6 10 0 0
BITMAP
38
6C
6C
38
78
0C
7C
CC
CC
7C
ENDCHAR
STARTCHAR ae
ENCODING 230
SWIDTH 937 0
DWIDTH 11 0
BBX 10 6 0 0
BITMAP
7F80
0CC0
7FC0
CC00
CEC0
7F80
ENDCHAR
STARTCHAR ccedilla
ENCODING 231
SWIDTH 527 0
DWIDTH 6 0
BBX 5 8 0 -2
BITMAP
78
C0
C0
C0
C0
78
30
E0
ENDCHAR
STARTCHAR egrave
ENCODING 232
SWIDTH 678 0
DWIDTH 7 0
BBX 6 9 0 0
BITMAP
60
30
00
78
CC
FC
C0
CC
78
ENDCHAR
STARTCHAR eacute
ENCODING 233
SWIDTH 678 0
DWIDTH 7 0
BBX 6 9 0 0
BITMAP
18
30
00
78
CC
FC
C0
CC
78
ENDCHAR
STARTCHAR ecircumflex
ENCODING 234
SWIDTH 678 0
DWIDTH 7 0
BBX 6 9 0 0
BITMAP
38
6C
00
78
CC
FC
C0
CC
78
ENDCHAR
STARTCHAR edieresis
ENCODING 235
SWIDTH 678 0
DWIDTH 7 0
BBX 6 8 0 0
BITMAP
CC
00
78
CC
FC
C0
CC
78
ENDCHAR
STARTCHAR igrave
ENCODING 236
SWIDTH 301 0
DWIDTH 3 0
BBX 2 9 0 0
BITMAP
80
C0
00
C0
C0
C0
C0
C0
C0
ENDCHAR
STARTCHAR iacute
ENCODING 237
SWIDTH 301 0
DWIDTH 3 0
BBX 3 9 0 0
BITMAP
60
C0
00
C0
C0
C0
C0
C0
C0
ENDCHAR
STARTCHAR icircumflex
ENCODING 238
SWIDTH 301 0
DWIDTH 3 0
BBX 5 10 -1 0
BITMAP
20
70
D8
00
60
60
60
60
60
60
ENDCHAR
STARTCHAR idieresis
ENCODING 239
SWIDTH 301 0
DWIDTH 3 0
BBX 2 8 0 0
BITMAP
C0
00
C0
C0
C0
C0
C0
C0
ENDCHAR
STARTCHAR eth
ENCODING 240
SWIDTH 619 0
DWIDTH 7 0
BBX 6 9 0 0
BITMAP
60
3C
78
0C
7C
CC
CC
CC
78
ENDCHAR
STARTCHAR ntilde
ENCODING 241
SWIDTH 711 0
DWIDTH 8 0
BBX 6 9 0 0
BITMAP
F4
BC
00
F8
CC
CC
CC
CC
CC
ENDCHAR
STARTCHAR ograve
ENCODING 242
SWIDTH 687 0
DWIDTH 8 0
BBX 6 9 0 0
BITMAP
60
30
00
78
CC
CC
CC
CC
78
ENDCHAR
STARTCHAR oacute
ENCODING 243
SWIDTH 687 0
DWIDTH 8 0
BBX 6 9 0 0
BITMAP
18
30
00
78
CC
CC
CC
CC
78
ENDCHAR
STARTCHAR ocircumflex
ENCODING 244
SWIDTH 687 0
DWIDTH 8 0
BBX 6 9 0 0
BITMAP
78
CC
00
78
CC
CC
CC
CC
78
ENDCHAR
STARTCHAR otilde
ENCODING 245
SWIDTH 687 0
DWIDTH 8 0
BBX 6 9 0 0
BITMAP
F4
BC
00
78
CC
CC
CC
CC
78
ENDCHAR
STARTCHAR odieresis
ENCODING 246
SWIDTH 687 0
DWIDTH 8 0
BBX 6 8 0 0
BITMAP
CC
00
78
CC
CC
CC
CC
78
ENDCHAR
STARTCHAR divide
ENCODING 247
SWIDTH 818 0
DWIDTH 9 0
BBX 8 7 0 0
BITMAP
18
18
00
FF
00
18
18
ENDCHAR
STARTCHAR oslash
ENCODING 248
SWIDTH 617 0
DWIDTH 7 0
BBX 6 8 0 -1
BITMAP
0C
78
DC
FC
FC
EC
78
C0
ENDCHAR
STARTCHAR ugrave
ENCODING 249
SWIDTH 711 0
DWIDTH 8 0
BBX 6 9 0 0
BITMAP
60
30
00
CC
CC
CC
CC
CC
7C
ENDCHAR
STARTCHAR uacute
ENCODING 250
SWIDTH 711 0
DWIDTH 8 0
BBX 6 9 0 0
BITMAP
18
30
00
CC
CC
CC
CC
CC
7C
ENDCHAR
STARTCHAR ucircumflex
ENCODING 251
SWIDTH 711 0
DWIDTH 8 0
BBX 6 9 0 0
BITMAP
78
CC
00
CC
CC
CC
CC
CC
7C
ENDCHAR
STARTCHAR udieresis
ENCODING 252
SWIDTH 711 0
DWIDTH 8 0
BBX 6 8 0 0
BITMAP
CC
00
CC
CC
CC
CC
CC
7C
ENDCHAR
STARTCHAR yacute
ENCODING 253
SWIDTH 575 0
DWIDTH 6 0
BBX 6 11 0 -2
BITMAP
18
30
00
CC
CC
78
78
30
30
60
60
ENDCHAR
STARTCHAR thorn
ENCODING 254
SWIDTH 629 0
DWIDTH 7 0
BBX 6 11 0 -2
BITMAP
C0
C0
C0
F8
CC
CC
CC
CC
F8
C0
C0
ENDCHAR
STARTCHAR ydieresis
ENCODING 255
SWIDTH 575 0
DWIDTH 6 0
BBX 6 10 0 -2
BITMAP
CC
00
CC
CC
78
78
30
30
60
60
ENDCHAR
STARTCHAR Amacron
ENCODING 256
SWIDTH 684 0
DWIDTH 8 0
BBX 6 10 0 0
BITMAP
78
00
30
30
28
48
48
7C
C4
84
ENDCHAR
STARTCHAR amacron
ENCODING 257
SWIDTH 674 0
DWIDTH 7 0
BBX 5 8 0 0
BITMAP
78
00
70
08
78
88
88
78
ENDCHAR
STARTCHAR Abreve
ENCODING 258
SWIDTH 684 0
DWIDTH 8 0
BBX 7 11 0 0
BITMAP
6C
38
00
38
38
6C
6C
6C
FE
C6
C6
ENDCHAR
STARTCHAR abreve
ENCODING 259
SWIDTH 674 0
DWIDTH 7 0
BBX 6 9 0 0
BITMAP
6C
38
00
78
0C
7C
CC
CC
7C
ENDCHAR
STARTCHAR Aogonek
ENCODING 260
SWIDTH 684 0
DWIDTH 8 0
BBX 7 10 0 -2
BITMAP
38
38
6C
6C
6C
FE
C6
C6
04
06
ENDCHAR
STARTCHAR aogonek
ENCODING 261
SWIDTH 598 0
DWIDTH 7 0
BBX 6 8 0 -2
BITMAP
78
0C
7C
CC
CC
7C
08
0C
ENDCHAR
STARTCHAR Cacute
ENCODING 262
SWIDTH 733 0
DWIDTH 8 0
BBX 6 11 0 0
BITMAP
04
08
00
38
44
80
80
80
80
C0
7C
ENDCHAR
STARTCHAR cacute
ENCODING 263
SWIDTH 592 0
DWIDTH 7 0
BBX 5 8 0 0
BITMAP
10
20
78
80
80
80
C0
78
ENDCHAR
STARTCHAR Ccircumflex
ENCODING 264
SWIDTH 733 0
DWIDTH 8 0
BBX 6 11 0 0
BITMAP
10
28
00
78
44
80
80
80
80
44
3C
ENDCHAR
STARTCHAR ccircumflex
ENCODING 265
SWIDTH 592 0
DWIDTH 7 0
BBX 5 9 0 0
BITMAP
30
48
00
78
80
80
80
80
70
ENDCHAR
STARTCHAR Cdotaccent
ENCODING 266
SWIDTH 733 0
DWIDTH 8 0
BBX 6 10 0 0
BITMAP
10
00
7C
44
80
80
80
80
40
3C
ENDCHAR
STARTCHAR cdotaccent
ENCODING 267
SWIDTH 592 0
DWIDTH 7 0
BBX 4 8 0 0
BITMAP
20
00
70
80
80
80
80
70
ENDCHAR
STARTCHAR Ccaron
ENCODING 268
SWIDTH 733 0
DWIDTH 8 0
BBX 7 11 0 0
BITMAP
6C
38
00
3C
66
C0
C0
C0
C0
66
3C
ENDCHAR
STARTCHAR ccaron
ENCODING 269
SWIDTH 592 0
DWIDTH 7 0
BBX 5 9 0 0
BITMAP
D8
70
00
78
C0
C0
C0
C0
78
ENDCHAR
STARTCHAR Dcaron
ENCODING 270
SWIDTH 830 0
DWIDTH 9 0
BBX 6 11 1 0
BITMAP
50
20
00
F0
88
84
84
84
84
88
F0
ENDCHAR
STARTCHAR dcaron
ENCODING 271
SWIDTH 817 0
DWIDTH 9 0
BBX 7 8 0 0
BITMAP
0A
0A
78
88
88
88
88
78
ENDCHAR
STARTCHAR Dcroat
ENCODING 272
SWIDTH 773 0
DWIDTH 8 0
BBX 7 8 0 0
BITMAP
78
44
42
F2
42
42
44
78
ENDCHAR
STARTCHAR dcroat
ENCODING 273
SWIDTH 625 0
DWIDTH 7 0
BBX 6 9 0 0
BITMAP
08
3C
08
78
88
88
88
88
78
ENDCHAR
STARTCHAR Emacron
ENCODING 274
SWIDTH 683 0
DWIDTH 8 0
BBX 5 10 1 0
BITMAP
F0
00
F8
80
80
F8
80
80
80
F8
ENDCHAR
STARTCHAR emacron
ENCODING 275
SWIDTH 678 0
DWIDTH 7 0
BBX 5 8 0 0
BITMAP
78
00
78
48
F8
80
40
78
ENDCHAR
STARTCHAR Ebreve
ENCODING 276
SWIDTH 683 0
DWIDTH 8 0
BBX 5 10 1 0
BITMAP
50
20
F8
80
80
F8
80
80
80
F8
ENDCHAR
STARTCHAR ebreve
ENCODING 277
SWIDTH 678 0
DWIDTH 7 0
BBX 5 9 0 0
BITMAP
08
30
00
78
48
F8
80
40
38
ENDCHAR
STARTCHAR Edotaccent
ENCODING 278
SWIDTH 683 0
DWIDTH 8 0
BBX 6 10 0 0
BITMAP
10
00
FC
C0
C0
F8
C0
C0
C0
FC
ENDCHAR
STARTCHAR edotaccent
ENCODING 279
SWIDTH 678 0
DWIDTH 7 0
BBX 6 8 0 0
BITMAP
10
00
78
CC
FC
C0
CC
78
ENDCHAR
STARTCHAR Eogonek
ENCODING 280
SWIDTH 615 0
DWIDTH 7 0
BBX 6 10 0 -2
BITMAP
FC
C0
C0
F8
C0
C0
C0
FC
08
0C
ENDCHAR
STARTCHAR eogonek
ENCODING 281
SWIDTH 593 0
DWIDTH 7 0
BBX 6 8 0 -2
BITMAP
78
CC
FC
C0
CC
78
10
18
ENDCHAR
STARTCHAR Ecaron
ENCODING 282
SWIDTH 683 0
DWIDTH 8 0
BBX 5 11 1 0
BITMAP
50
20
00
F8
80
80
F8
80
80
80
F8
ENDCHAR
STARTCHAR ecaron
ENCODING 283
SWIDTH 678 0
DWIDTH 7 0
BBX 5 9 1 0
BITMAP
A0
40
00
70
88
F8
80
80
78
ENDCHAR
STARTCHAR Gcircumflex
ENCODING 284
SWIDTH 820 0
DWIDTH 9 0
BBX 7 11 0 0
BITMAP
18
24
00
3E
42
80
80
8E
82
42
3C
ENDCHAR
STARTCHAR gcircumflex
ENCODING 285
SWIDTH 715 0
DWIDTH 8 0
BBX 5 11 0 -2
BITMAP
30
48
00
78
88
88
88
88
78
08
70
ENDCHAR
STARTCHAR Gbreve
ENCODING 286
SWIDTH 820 0
DWIDTH 9 0
BBX 7 11 0 0
BITMAP
24
18
00
3C
42
80
80
8E
82
42
3C
ENDCHAR
STARTCHAR gbreve
ENCODING 287
SWIDTH 715 0
DWIDTH 8 0
BBX 5 11 0 -2
BITMAP
40
70
00
78
88
88
88
88
78
08
70
ENDCHAR
STARTCHAR Gdotaccent
ENCODING 288
SWIDTH 820 0
DWIDTH 9 0
BBX 7 10 0 0
BITMAP
10
00
3E
42
80
80
8E
82
42
3C
ENDCHAR
STARTCHAR gdotaccent
ENCODING 289
SWIDTH 715 0
DWIDTH 8 0
BBX 5 10 0 -2
BITMAP
20
00
78
88
88
88
98
68
08
70
ENDCHAR
STARTCHAR Gcommaaccent
ENCODING 290
SWIDTH 745 0
DWIDTH 8 0
BBX 7 10 0 -2
BITMAP
3E
42
80
80
9E
82
42
3C
08
18
ENDCHAR
STARTCHAR gcommaaccent
ENCODING 291
SWIDTH 715 0
DWIDTH 8 0
BBX 5 11 0 -2
BITMAP
10
30
00
78
88
88
88
88
78
08
70
ENDCHAR
STARTCHAR Hcircumflex
ENCODING 292
SWIDTH 836 0
DWIDTH 9 0
BBX 5 11 1 0
BITMAP
30
48
00
88
88
88
F8
88
88
88
88
ENDCHAR
STARTCHAR hcircumflex
ENCODING 293
SWIDTH 711 0
DWIDTH 8 0
BBX 4 11 1 0
BITMAP
60
90
00
80
80
F0
90
90
90
90
90
ENDCHAR
STARTCHAR Hbar
ENCODING 294
SWIDTH 781 0
DWIDTH 8 0
BBX 8 8 0 0
BITMAP
42
FF
42
7E
42
42
42
42
ENDCHAR
STARTCHAR hbar
ENCODING 295
SWIDTH 635 0
DWIDTH 7 0
BBX 6 9 0 0
BITMAP
40
F0
40
58
64
44
44
44
44
ENDCHAR
STARTCHAR Itilde
ENCODING 296
SWIDTH 483 0
DWIDTH 5 0
BBX 4 11 0 0
BITMAP
D0
20
00
E0
40
40
40
40
40
40
E0
ENDCHAR
STARTCHAR itilde
ENCODING 297
SWIDTH 301 0
DWIDTH 4 0
BBX 3 9 0 0
BITMAP
C0
20
00
40
40
40
40
40
40
ENDCHAR
STARTCHAR Imacron
ENCODING 298
SWIDTH 483 0
DWIDTH 5 0
BBX 3 10 0 0
BITMAP
E0
00
E0
40
40
40
40
40
40
E0
ENDCHAR
STARTCHAR imacron
ENCODING 299
SWIDTH 301 0
DWIDTH 4 0
BBX 3 8 0 0
BITMAP
E0
00
40
40
40
40
40
40
ENDCHAR
STARTCHAR Ibreve
ENCODING 300
SWIDTH 483 0
DWIDTH 5 0
BBX 3 11 1 0
BITMAP
20
E0
00
E0
40
40
40
40
40
40
E0
ENDCHAR
STARTCHAR ibreve
ENCODING 301
SWIDTH 301 0
DWIDTH 4 0
BBX 3 9 0 0
BITMAP
A0
E0
00
40
40
40
40
40
40
ENDCHAR
STARTCHAR Iogonek
ENCODING 302
SWIDTH 483 0
DWIDTH 5 0
BBX 4 10 0 -2
BITMAP
F0
60
60
60
60
60
60
F0
20
30
ENDCHAR
STARTCHAR iogonek
ENCODING 303
SWIDTH 301 0
DWIDTH 3 0
BBX 2 10 0 -2
BITMAP
C0
00
C0
C0
C0
C0
C0
C0
80
40
ENDCHAR
STARTCHAR Idotaccent
ENCODING 304
SWIDTH 483 0
DWIDTH 5 0
BBX 1 10 1 0
BITMAP
80
00
80
80
80
80
80
80
80
80
ENDCHAR
STARTCHAR dotlessi
ENCODING 305
SWIDTH 301 0
DWIDTH 4 0
BBX 1 6 1 0
BITMAP
80
80
80
80
80
80
ENDCHAR
STARTCHAR Lacute
ENCODING 313
SWIDTH 637 0
DWIDTH 7 0
BBX 5 11 1 0
BITMAP
40
80
00
80
80
80
80
80
80
80
F8
ENDCHAR
STARTCHAR lacute
ENCODING 314
SWIDTH 301 0
DWIDTH 4 0
BBX 2 11 1 0
BITMAP
40
80
00
80
80
80
80
80
80
80
80
ENDCHAR
STARTCHAR Lcaron
ENCODING 317
SWIDTH 637 0
DWIDTH 7 0
BBX 5 8 1 0
BITMAP
90
A0
80
80
80
80
80
F8
ENDCHAR
STARTCHAR lcaron
ENCODING 318
SWIDTH 489 0
DWIDTH 4 0
BBX 3 8 1 0
BITMAP
A0
A0
80
80
80
80
80
80
ENDCHAR
STARTCHAR Lslash
ENCODING 321
SWIDTH 588 0
DWIDTH 8 0
BBX 6 8 0 0
BITMAP
40
40
50
60
C0
40
40
7C
ENDCHAR
STARTCHAR lslash
ENCODING 322
SWIDTH 334 0
DWIDTH 4 0
BBX 2 8 0 0
BITMAP
40
40
40
40
C0
40
40
40
ENDCHAR
STARTCHAR Nacute
ENCODING 323
SWIDTH 836 0
DWIDTH 9 0
BBX 5 11 1 0
BITMAP
10
20
00
C8
C8
C8
A8
A8
98
98
88
ENDCHAR
STARTCHAR nacute
ENCODING 324
SWIDTH 711 0
DWIDTH 8 0
BBX 4 9 1 0
BITMAP
20
40
00
F0
90
90
90
90
90
ENDCHAR
STARTCHAR Ncaron
ENCODING 327
SWIDTH 836 0
DWIDTH 9 0
BBX 5 11 1 0
BITMAP
50
20
00
C8
C8
C8
A8
A8
98
98
88
ENDCHAR
STARTCHAR ncaron
ENCODING 328
SWIDTH 711 0
DWIDTH 8 0
BBX 4 9 1 0
BITMAP
A0
40
00
F0
90
90
90
90
90
ENDCHAR
STARTCHAR Ohungarumlaut
ENCODING 336
SWIDTH 850 0
DWIDTH 9 0
BBX 7 11 0 0
BITMAP
14
28
00
78
44
82
82
82
82
44
78
ENDCHAR
STARTCHAR ohungarumlaut
ENCODING 337
SWIDTH 687 0
DWIDTH 8 0
BBX 6 9 0 0
BITMAP
28
50
00
78
CC
84
84
CC
78
ENDCHAR
STARTCHAR OE
ENCODING 338
SWIDTH 1036 0
DWIDTH 12 0
BBX 11 8 0 0
BITMAP
3FE0
6600
C600
C7E0
C600
C600
6600
3FE0
ENDCHAR
STARTCHAR oe
ENCODING 339
SWIDTH 985 0
DWIDTH 11 0
BBX 10 6 0 0
BITMAP
7F80
CCC0
CFC0
CC00
CC00
7FC0
ENDCHAR
STARTCHAR Racute
ENCODING 340
SWIDTH 770 0
DWIDTH 8 0
BBX 5 11 1 0
BITMAP
20
40
00
F0
88
88
98
E0
90
88
88
ENDCHAR
STARTCHAR racute
ENCODING 341
SWIDTH 433 0
DWIDTH 5 0
BBX 3 9 1 0
BITMAP
40
80
00
E0
80
80
80
80
80
ENDCHAR
STARTCHAR Rcaron
ENCODING 344
SWIDTH 770 0
DWIDTH 8 0
BBX 5 11 1 0
BITMAP
50
20
00
F0
88
88
98
E0
90
88
88
ENDCHAR
STARTCHAR rcaron
ENCODING 345
SWIDTH 433 0
DWIDTH 5 0
BBX 3 9 1 0
BITMAP
A0
40
00
E0
80
80
80
80
80
ENDCHAR
STARTCHAR Sacute
ENCODING 346
SWIDTH 633 0
DWIDTH 7 0
BBX 6 11 0 0
BITMAP
10
20
00
7C
84
80
E0
1C
04
04
F8
ENDCHAR
STARTCHAR sacute
ENCODING 347
SWIDTH 595 0
DWIDTH 7 0
BBX 5 9 0 0
BITMAP
10
20
00
78
80
E0
18
08
F0
ENDCHAR
STARTCHAR Scedilla
ENCODING 350
SWIDTH 633 0
DWIDTH 7 0
BBX 6 10 0 -2
BITMAP
7C
84
80
E0
1C
04
04
F8
08
38
ENDCHAR
STARTCHAR scedilla
ENCODING 351
SWIDTH 514 0
DWIDTH 6 0
BBX 5 8 0 -2
BITMAP
78
80
E0
18
08
F0
10
70
ENDCHAR
STARTCHAR Scaron
ENCODING 352
SWIDTH 633 0
DWIDTH 7 0
BBX 6 11 0 0
BITMAP
6C
38
00
7C
C0
C0
78
0C
0C
0C
F8
ENDCHAR
STARTCHAR scaron
ENCODING 353
SWIDTH 595 0
DWIDTH 7 0
BBX 5 9 0 0
BITMAP
D8
70
00
78
C0
E0
38
18
F0
ENDCHAR
STARTCHAR Tcommaaccent
ENCODING 354
SWIDTH 612 0
DWIDTH 7 0
BBX 7 10 0 -2
BITMAP
FE
10
10
10
10
10
10
10
08
18
ENDCHAR
STARTCHAR tcommaaccent
ENCODING 355
SWIDTH 415 0
DWIDTH 5 0
BBX 4 10 0 -2
BITMAP
40
40
F0
40
40
40
40
70
20
60
ENDCHAR
STARTCHAR Tcaron
ENCODING 356
SWIDTH 612 0
DWIDTH 7 0
BBX 7 11 0 0
BITMAP
28
10
00
FE
10
10
10
10
10
10
10
ENDCHAR
STARTCHAR tcaron
ENCODING 357
SWIDTH 619 0
DWIDTH 5 0
BBX 5 8 0 0
BITMAP
48
50
F0
40
40
40
40
70
ENDCHAR
STARTCHAR Umacron
ENCODING 362
SWIDTH 812 0
DWIDTH 9 0
BBX 7 10 0 0
BITMAP
7C
00
C6
C6
C6
C6
C6
C6
C6
7C
ENDCHAR
STARTCHAR umacron
ENCODING 363
SWIDTH 711 0
DWIDTH 8 0
BBX 6 8 0 0
BITMAP
78
00
CC
CC
CC
CC
CC
7C
ENDCHAR
STARTCHAR Uring
ENCODING 366
SWIDTH 812 0
DWIDTH 9 0
BBX 6 11 1 0
BITMAP
70
50
50
F4
84
84
84
84
84
8C
78
ENDCHAR
STARTCHAR uring
ENCODING 367
SWIDTH 711 0
DWIDTH 8 0
BBX 4 9 1 0
BITMAP
E0
A0
E0
90
90
90
90
90
F0
ENDCHAR
STARTCHAR Uhungarumlaut
ENCODING 368
SWIDTH 812 0
DWIDTH 9 0
BBX 5 10 1 0
BITMAP
50
00
88
88
88
88
88
88
88
70
ENDCHAR
STARTCHAR uhungarumlaut
ENCODING 369
SWIDTH 711 0
DWIDTH 8 0
BBX 4 9 1 0
BITMAP
50
A0
00
90
90
90
90
90
F0
ENDCHAR
STARTCHAR Uogonek
ENCODING 370
SWIDTH 738 0
DWIDTH 8 0
BBX 7 10 0 -2
BITMAP
C6
C6
C6
C6
C6
C6
C6
7C
08
0C
ENDCHAR
STARTCHAR uogonek
ENCODING 371
SWIDTH 640 0
DWIDTH 7 0
BBX 6 8 0 -2
BITMAP
CC
CC
CC
CC
CC
7C
08
0C
ENDCHAR
STARTCHAR Ydieresis
ENCODING 376
SWIDTH 724 0
DWIDTH 8 0
BBX 6 10 0 0
BITMAP
CC
00
CC
CC
78
78
30
30
30
30
ENDCHAR
STARTCHAR Zacute
ENCODING 377
SWIDTH 725 0
DWIDTH 8 0
BBX 6 11 0 0
BITMAP
10
20
00
FC
08
18
10
20
60
40
FC
ENDCHAR
STARTCHAR zacute
ENCODING 378
SWIDTH 525 0
DWIDTH 6 0
BBX 5 9 0 0
BITMAP
10
20
00
F8
10
20
20
40
F8
ENDCHAR
STARTCHAR Zdotaccent
ENCODING 379
SWIDTH 725 0
DWIDTH 8 0
BBX 6 10 0 0
BITMAP
20
00
FC
08
18
10
20
60
40
FC
ENDCHAR
STARTCHAR zdotaccent
ENCODING 380
SWIDTH 525 0
DWIDTH 6 0
BBX 5 8 0 0
BITMAP
20
00
F8
10
20
20
40
F8
ENDCHAR
STARTCHAR Zcaron
ENCODING 381
SWIDTH 725 0
DWIDTH 8 0
BBX 6 11 0 0
BITMAP
6C
38
00
FC
0C
18
30
30
60
C0
FC
ENDCHAR
STARTCHAR zcaron
ENCODING 382
SWIDTH 525 0
DWIDTH 6 0
BBX 5 9 0 0
BITMAP
D8
70
00
F8
18
30
60
C0
F8
ENDCHAR
STARTCHAR florin
ENCODING 402
SWIDTH 636 0
DWIDTH 7 0
BBX 7 9 0 -1
BITMAP
0E
18
18
3C
18
18
30
30
E0
ENDCHAR
STARTCHAR Ohorn
ENCODING 416
SWIDTH 841 0
DWIDTH 11 0
BBX 8 8 0 0
BITMAP
3D
47
82
82
82
82
42
3C
ENDCHAR
STARTCHAR Scommaaccent
ENCODING 536
SWIDTH 633 0
DWIDTH 8 0
BBX 6 11 0 -3
BITMAP
7C
C0
C0
78
0C
0C
0C
F8
00
30
60
ENDCHAR
STARTCHAR scommaaccent
ENCODING 537
SWIDTH 514 0
DWIDTH 7 0
BBX 5 9 0 -3
BITMAP
78
C0
E0
38
18
F0
00
60
C0
ENDCHAR
STARTCHAR uni021A
ENCODING 538
SWIDTH 612 0
DWIDTH 7 0
BBX 6 11 0 -3
BITMAP
FC
30
30
30
30
30
30
30
00
30
60
ENDCHAR
STARTCHAR uni021B
ENCODING 539
SWIDTH 415 0
DWIDTH 5 0
BBX 4 11 0 -3
BITMAP
C0
C0
F0
C0
C0
C0
C0
70
00
60
C0
ENDCHAR
STARTCHAR circumflex
ENCODING 710
SWIDTH 545 0
DWIDTH 7 0
BBX 5 2 1 7
BITMAP
70
D8
ENDCHAR
STARTCHAR caron
ENCODING 711
SWIDTH 545 0
DWIDTH 7 0
BBX 3 2 1 7
BITMAP
A0
40
ENDCHAR
STARTCHAR uni02C9
ENCODING 713
SWIDTH 636 0
DWIDTH 7 0
BBX 7 1 0 9
BITMAP
FE
ENDCHAR
STARTCHAR breve
ENCODING 728
SWIDTH 545 0
DWIDTH 7 0
BBX 3 2 1 7
BITMAP
A0
E0
ENDCHAR
STARTCHAR dotaccent
ENCODING 729
SWIDTH 545 0
DWIDTH 7 0
BBX 1 1 2 7
BITMAP
80
ENDCHAR
STARTCHAR ring
ENCODING 730
SWIDTH 545 0
DWIDTH 7 0
BBX 3 3 1 6
BITMAP
E0
A0
E0
ENDCHAR
STARTCHAR ogonek
ENCODING 731
SWIDTH 545 0
DWIDTH 7 0
BBX 2 2 2 -2
BITMAP
80
C0
ENDCHAR
STARTCHAR tilde
ENCODING 732
SWIDTH 545 0
DWIDTH 7 0
BBX 5 2 1 7
BITMAP
E8
B8
ENDCHAR
STARTCHAR hungarumlaut
ENCODING 733
SWIDTH 545 0
DWIDTH 7 0
BBX 4 2 1 7
BITMAP
50
A0
ENDCHAR
STARTCHAR uni0326
ENCODING 806
SWIDTH 0 0
DWIDTH 0 0
BBX 3 2 0 -3
BITMAP
60
C0
ENDCHAR
STARTCHAR pi
ENCODING 960
SWIDTH 646 0
DWIDTH 7 0
BBX 6 6 1 0
BITMAP
FC
C8
50
50
50
58
ENDCHAR
STARTCHAR uni0400
ENCODING 1024
SWIDTH 683 0
DWIDTH 8 0
BBX 6 11 0 0
BITMAP
30
18
00
FC
C0
C0
F8
C0
C0
C0
FC
ENDCHAR
STARTCHAR afii10023
ENCODING 1025
SWIDTH 683 0
DWIDTH 8 0
BBX 6 10 0 0
BITMAP
CC
00
FC
C0
C0
F8
C0
C0
C0
FC
ENDCHAR
STARTCHAR afii10053
ENCODING 1028
SWIDTH 667 0
DWIDTH 7 0
BBX 6 8 0 0
BITMAP
7C
C0
C0
F8
C0
C0
C0
7C
ENDCHAR
STARTCHAR afii10054
ENCODING 1029
SWIDTH 720 0
DWIDTH 8 0
BBX 6 8 0 0
BITMAP
7C
C0
C0
78
0C
0C
0C
F8
ENDCHAR
STARTCHAR afii10055
ENCODING 1030
SWIDTH 483 0
DWIDTH 5 0
BBX 4 8 0 0
BITMAP
F0
60
60
60
60
60
60
F0
ENDCHAR
STARTCHAR afii10056
ENCODING 1031
SWIDTH 483 0
DWIDTH 5 0
BBX 4 10 0 0
BITMAP
F0
00
F0
60
60
60
60
60
60
F0
ENDCHAR
STARTCHAR afii10062
ENCODING 1038
SWIDTH 668 0
DWIDTH 7 0
BBX 7 11 0 0
BITMAP
6C
38
00
C6
C6
6C
6C
38
18
70
60
ENDCHAR
STARTCHAR afii10017
ENCODING 1040
SWIDTH 684 0
DWIDTH 8 0
BBX 7 8 0 0
BITMAP
38
38
6C
6C
6C
FE
C6
C6
ENDCHAR
STARTCHAR afii10018
ENCODING 1041
SWIDTH 686 0
DWIDTH 8 0
BBX 6 8 0 0
BITMAP
F8
C0
C0
F8
CC
CC
CC
F8
ENDCHAR
STARTCHAR afii10019
ENCODING 1042
SWIDTH 762 0
DWIDTH 8 0
BBX 6 8 0 0
BITMAP
F0
CC
CC
F0
CC
CC
CC
F0
ENDCHAR
STARTCHAR afii10020
ENCODING 1043
SWIDTH 565 0
DWIDTH 6 0
BBX 5 8 0 0
BITMAP
F8
C0
C0
C0
C0
C0
C0
C0
ENDCHAR
STARTCHAR afii10021
ENCODING 1044
SWIDTH 767 0
DWIDTH 8 0
BBX 9 10 -1 -2
BITMAP
3F00
3300
3300
3300
3300
6300
6300
FF80
C180
C180
ENDCHAR
STARTCHAR afii10022
ENCODING 1045
SWIDTH 683 0
DWIDTH 8 0
BBX 6 8 0 0
BITMAP
FC
C0
C0
F8
C0
C0
C0
FC
ENDCHAR
STARTCHAR afii10024
ENCODING 1046
SWIDTH 1043 0
DWIDTH 11 0
BBX 9 8 0 0
BITMAP
C980
6B00
3E00
1C00
3E00
6B00
6B00
C980
ENDCHAR
STARTCHAR afii10025
ENCODING 1047
SWIDTH 635 0
DWIDTH 7 0
BBX 6 8 0 0
BITMAP
F8
0C
0C
78
0C
0C
0C
F8
ENDCHAR
STARTCHAR afii10026
ENCODING 1048
SWIDTH 775 0
DWIDTH 9 0
BBX 7 8 0 0
BITMAP
86
8E
9E
BA
F2
E2
C2
82
ENDCHAR
STARTCHAR afii10027
ENCODING 1049
SWIDTH 775 0
DWIDTH 9 0
BBX 7 11 0 0
BITMAP
44
38
00
86
8E
9E
BA
F2
E2
C2
82
ENDCHAR
STARTCHAR afii10028
ENCODING 1050
SWIDTH 696 0
DWIDTH 8 0
BBX 6 8 0 0
BITMAP
CC
D8
D8
F0
F0
D8
D8
CC
ENDCHAR
STARTCHAR afii10029
ENCODING 1051
SWIDTH 776 0
DWIDTH 9 0
BBX 7 8 0 0
BITMAP
3E
66
66
66
66
66
66
C6
ENDCHAR
STARTCHAR afii10030
ENCODING 1052
SWIDTH 893 0
DWIDTH 10 0
BBX 8 8 0 0
BITMAP
C1
E3
F7
BD
99
81
81
81
ENDCHAR
STARTCHAR afii10031
ENCODING 1053
SWIDTH 836 0
DWIDTH 9 0
BBX 7 8 0 0
BITMAP
C6
C6
C6
FE
C6
C6
C6
C6
ENDCHAR
STARTCHAR afii10032
ENCODING 1054
SWIDTH 850 0
DWIDTH 9 0
BBX 8 8 0 0
BITMAP
3C
66
C3
C3
C3
C3
66
3C
ENDCHAR
STARTCHAR afii10033
ENCODING 1055
SWIDTH 764 0
DWIDTH 8 0
BBX 7 8 0 0
BITMAP
FE
C6
C6
C6
C6
C6
C6
C6
ENDCHAR
STARTCHAR afii10034
ENCODING 1056
SWIDTH 732 0
DWIDTH 8 0
BBX 6 8 0 0
BITMAP
F8
CC
CC
CC
F8
C0
C0
C0
ENDCHAR
STARTCHAR afii10035
ENCODING 1057
SWIDTH 733 0
DWIDTH 8 0
BBX 7 8 0 0
BITMAP
3C
66
C0
C0
C0
C0
66
3C
ENDCHAR
STARTCHAR afii10036
ENCODING 1058
SWIDTH 612 0
DWIDTH 7 0
BBX 6 8 0 0
BITMAP
FC
30
30
30
30
30
30
30
ENDCHAR
STARTCHAR afii10037
ENCODING 1059
SWIDTH 668 0
DWIDTH 7 0
BBX 7 8 0 0
BITMAP
C6
C6
6C
6C
38
18
70
60
ENDCHAR
STARTCHAR afii10038
ENCODING 1060
SWIDTH 876 0
DWIDTH 10 0
BBX 8 8 0 0
BITMAP
18
7E
DB
DB
DB
DB
7E
18
ENDCHAR
STARTCHAR afii10039
ENCODING 1061
SWIDTH 684 0
DWIDTH 8 0
BBX 6 8 0 0
BITMAP
CC
CC
78
30
30
78
CC
CC
ENDCHAR
STARTCHAR afii10040
ENCODING 1062
SWIDTH 776 0
DWIDTH 9 0
BBX 8 10 0 -2
BITMAP
C6
C6
C6
C6
C6
C6
C6
FF
03
03
ENDCHAR
STARTCHAR afii10041
ENCODING 1063
SWIDTH 718 0
DWIDTH 8 0
BBX 7 8 0 0
BITMAP
C6
C6
C6
C6
7E
06
06
06
ENDCHAR
STARTCHAR afii10042
ENCODING 1064
SWIDTH 1089 0
DWIDTH 12 0
BBX 10 8 0 0
BITMAP
CCC0
CCC0
CCC0
CCC0
CCC0
CCC0
CCC0
FFC0
ENDCHAR
STARTCHAR afii10043
ENCODING 1065
SWIDTH 1103 0
DWIDTH 12 0
BBX 11 10 0 -2
BITMAP
CCC0
CCC0
CCC0
CCC0
CCC0
CCC0
CCC0
FFE0
0060
0060
ENDCHAR
STARTCHAR afii10044
ENCODING 1066
SWIDTH 806 0
DWIDTH 9 0
BBX 8 8 0 0
BITMAP
F0
30
30
3E
33
33
33
3E
ENDCHAR
STARTCHAR afii10045
ENCODING 1067
SWIDTH 960 0
DWIDTH 11 0
BBX 9 8 0 0
BITMAP
C180
C180
C180
F980
CD80
CD80
CD80
F980
ENDCHAR
STARTCHAR afii10046
ENCODING 1068
SWIDTH 676 0
DWIDTH 7 0
BBX 6 8 0 0
BITMAP
C0
C0
C0
F8
CC
CC
CC
F8
ENDCHAR
STARTCHAR afii10047
ENCODING 1069
SWIDTH 667 0
DWIDTH 7 0
BBX 6 8 0 0
BITMAP
F8
0C
0C
7C
0C
0C
0C
F8
ENDCHAR
STARTCHAR afii10048
ENCODING 1070
SWIDTH 1127 0
DWIDTH 12 0
BBX 10 8 0 0
BITMAP
CF80
D8C0
D8C0
F8C0
D8C0
D8C0
D8C0
CF80
ENDCHAR
STARTCHAR afii10049
ENCODING 1071
SWIDTH 716 0
DWIDTH 8 0
BBX 7 8 -1 0
BITMAP
3E
66
66
66
3E
36
66
C6
ENDCHAR
STARTCHAR afii10065
ENCODING 1072
SWIDTH 674 0
DWIDTH 7 0
BBX 6 6 0 0
BITMAP
78
0C
7C
CC
CC
7C
ENDCHAR
STARTCHAR afii10066
ENCODING 1073
SWIDTH 627 0
DWIDTH 7 0
BBX 6 8 0 0
BITMAP
18
70
C0
F8
CC
CC
CC
78
ENDCHAR
STARTCHAR afii10067
ENCODING 1074
SWIDTH 607 0
DWIDTH 7 0
BBX 6 6 0 0
BITMAP
F8
CC
F8
CC
CC
F8
ENDCHAR
STARTCHAR afii10068
ENCODING 1075
SWIDTH 498 0
DWIDTH 5 0
BBX 5 6 0 0
BITMAP
F8
C0
C0
C0
C0
C0
ENDCHAR
STARTCHAR afii10069
ENCODING 1076
SWIDTH 646 0
DWIDTH 7 0
BBX 8 8 -1 -2
BITMAP
1E
36
36
36
66
FF
C3
C3
ENDCHAR
STARTCHAR afii10070
ENCODING 1077
SWIDTH 678 0
DWIDTH 7 0
BBX 6 6 0 0
BITMAP
78
CC
FC
C0
C0
7C
ENDCHAR
STARTCHAR afii10072
ENCODING 1078
SWIDTH 885 0
DWIDTH 10 0
BBX 9 6 0 0
BITMAP
C980
6B00
3E00
6B00
6B00
C980
ENDCHAR
STARTCHAR afii10073
ENCODING 1079
SWIDTH 524 0
DWIDTH 6 0
BBX 5 6 0 0
BITMAP
F0
18
30
18
18
F0
ENDCHAR
STARTCHAR afii10074
ENCODING 1080
SWIDTH 651 0
DWIDTH 7 0
BBX 5 6 1 0
BITMAP
88
98
B8
E8
C8
88
ENDCHAR
STARTCHAR afii10075
ENCODING 1081
SWIDTH 651 0
DWIDTH 7 0
BBX 5 9 1 0
BITMAP
88
70
00
88
98
B8
E8
C8
88
ENDCHAR
STARTCHAR afii10076
ENCODING 1082
SWIDTH 603 0
DWIDTH 7 0
BBX 6 6 0 0
BITMAP
CC
D8
F0
D8
D8
CC
ENDCHAR
STARTCHAR afii10077
ENCODING 1083
SWIDTH 653 0
DWIDTH 7 0
BBX 6 6 0 0
BITMAP
3C
6C
6C
6C
6C
CC
ENDCHAR
STARTCHAR afii10078
ENCODING 1084
SWIDTH 756 0
DWIDTH 8 0
BBX 7 6 0 0
BITMAP
C6
EE
EE
D6
D6
C6
ENDCHAR
STARTCHAR afii10079
ENCODING 1085
SWIDTH 649 0
DWIDTH 7 0
BBX 6 6 0 0
BITMAP
CC
CC
FC
CC
CC
CC
ENDCHAR
STARTCHAR afii10080
ENCODING 1086
SWIDTH 687 0
DWIDTH 8 0
BBX 6 6 0 0
BITMAP
78
CC
CC
CC
CC
78
ENDCHAR
STARTCHAR afii10081
ENCODING 1087
SWIDTH 646 0
DWIDTH 7 0
BBX 6 6 0 0
BITMAP
FC
CC
CC
CC
CC
CC
ENDCHAR
STARTCHAR afii10082
ENCODING 1088
SWIDTH 715 0
DWIDTH 8 0
BBX 6 8 0 -2
BITMAP
F8
CC
CC
CC
CC
F8
C0
C0
ENDCHAR
STARTCHAR afii10083
ENCODING 1089
SWIDTH 592 0
DWIDTH 7 0
BBX 5 6 0 0
BITMAP
78
C0
C0
C0
C0
78
ENDCHAR
STARTCHAR afii10084
ENCODING 1090
SWIDTH 520 0
DWIDTH 6 0
BBX 6 6 0 0
BITMAP
FC
30
30
30
30
30
ENDCHAR
STARTCHAR afii10085
ENCODING 1091
SWIDTH 575 0
DWIDTH 6 0
BBX 6 8 0 -2
BITMAP
CC
CC
78
78
30
30
60
60
ENDCHAR
STARTCHAR afii10086
ENCODING 1092
SWIDTH 887 0
DWIDTH 10 0
BBX 8 10 0 -2
BITMAP
18
18
7E
DB
DB
DB
DB
7E
18
18
ENDCHAR
STARTCHAR afii10087
ENCODING 1093
SWIDTH 645 0
DWIDTH 7 0
BBX 6 6 0 0
BITMAP
CC
CC
78
78
CC
CC
ENDCHAR
STARTCHAR afii10088
ENCODING 1094
SWIDTH 655 0
DWIDTH 7 0
BBX 7 8 0 -2
BITMAP
CC
CC
CC
CC
CC
FE
06
06
ENDCHAR
STARTCHAR afii10089
ENCODING 1095
SWIDTH 615 0
DWIDTH 7 0
BBX 6 6 0 0
BITMAP
CC
CC
CC
7C
0C
0C
ENDCHAR
STARTCHAR afii10090
ENCODING 1096
SWIDTH 923 0
DWIDTH 10 0
BBX 8 6 0 0
BITMAP
DB
DB
DB
DB
DB
FF
ENDCHAR
STARTCHAR afii10091
ENCODING 1097
SWIDTH 933 0
DWIDTH 10 0
BBX 9 8 0 -2
BITMAP
DB00
DB00
DB00
DB00
DB00
FF80
0180
0180
ENDCHAR
STARTCHAR afii10092
ENCODING 1098
SWIDTH 676 0
DWIDTH 7 0
BBX 7 6 0 0
BITMAP
E0
60
7C
66
66
7C
ENDCHAR
STARTCHAR afii10093
ENCODING 1099
SWIDTH 845 0
DWIDTH 9 0
BBX 9 6 0 0
BITMAP
C180
C180
F980
CD80
CD80
F980
ENDCHAR
STARTCHAR afii10094
ENCODING 1100
SWIDTH 574 0
DWIDTH 6 0
BBX 6 6 0 0
BITMAP
C0
C0
F8
CC
CC
F8
ENDCHAR
STARTCHAR afii10095
ENCODING 1101
SWIDTH 531 0
DWIDTH 6 0
BBX 5 6 0 0
BITMAP
F0
18
78
18
18
F0
ENDCHAR
STARTCHAR afii10096
ENCODING 1102
SWIDTH 922 0
DWIDTH 10 0
BBX 9 6 0 0
BITMAP
CF00
D980
F980
D980
D980
CF00
ENDCHAR
STARTCHAR afii10097
ENCODING 1103
SWIDTH 609 0
DWIDTH 7 0
BBX 6 6 0 0
BITMAP
7C
CC
CC
7C
6C
CC
ENDCHAR
STARTCHAR uni0450
ENCODING 1104
SWIDTH 678 0
DWIDTH 7 0
BBX 6 9 0 0
BITMAP
60
30
00
78
CC
FC
C0
CC
78
ENDCHAR
STARTCHAR afii10071
ENCODING 1105
SWIDTH 678 0
DWIDTH 7 0
BBX 6 8 0 0
BITMAP
CC
00
78
CC
FC
C0
CC
78
ENDCHAR
STARTCHAR afii10101
ENCODING 1108
SWIDTH 531 0
DWIDTH 6 0
BBX 5 6 0 0
BITMAP
78
C0
F0
C0
C0
78
ENDCHAR
STARTCHAR afii10103
ENCODING 1110
SWIDTH 301 0
DWIDTH 3 0
BBX 2 8 0 0
BITMAP
C0
00
C0
C0
C0
C0
C0
C0
ENDCHAR
STARTCHAR afii10104
ENCODING 1111
SWIDTH 301 0
DWIDTH 3 0
BBX 2 8 0 0
BITMAP
C0
00
C0
C0
C0
C0
C0
C0
ENDCHAR
STARTCHAR afii10110
ENCODING 1118
SWIDTH 575 0
DWIDTH 6 0
BBX 6 11 0 -2
BITMAP
48
30
00
CC
CC
78
78
30
30
60
60
ENDCHAR
STARTCHAR afii10050
ENCODING 1168
SWIDTH 565 0
DWIDTH 6 0
BBX 5 9 0 0
BITMAP
08
F8
C0
C0
C0
C0
C0
C0
C0
ENDCHAR
STARTCHAR afii10098
ENCODING 1169
SWIDTH 498 0
DWIDTH 5 0
BBX 5 7 0 0
BITMAP
08
F8
C0
C0
C0
C0
C0
ENDCHAR
STARTCHAR uni0492
ENCODING 1170
SWIDTH 565 0
DWIDTH 6 0
BBX 6 8 -1 0
BITMAP
7C
60
60
F8
60
60
60
60
ENDCHAR
STARTCHAR uni0493
ENCODING 1171
SWIDTH 498 0
DWIDTH 5 0
BBX 6 6 -1 0
BITMAP
7C
60
F8
60
60
60
ENDCHAR
STARTCHAR uni049A
ENCODING 1178
SWIDTH 696 0
DWIDTH 7 0
BBX 7 9 0 -1
BITMAP
CC
D8
F0
E0
E0
F0
D8
CE
02
ENDCHAR
STARTCHAR uni049B
ENCODING 1179
SWIDTH 603 0
DWIDTH 7 0
BBX 6 7 0 -1
BITMAP
CC
D8
F0
D8
D8
CC
04
ENDCHAR
STARTCHAR uni04A2
ENCODING 1186
SWIDTH 764 0
DWIDTH 8 0
BBX 8 9 0 -1
BITMAP
C6
C6
C6
FE
C6
C6
C6
C7
01
ENDCHAR
STARTCHAR uni04A3
ENCODING 1187
SWIDTH 649 0
DWIDTH 7 0
BBX 7 7 0 -1
BITMAP
CC
CC
FC
CC
CC
CE
02
ENDCHAR
STARTCHAR uni04AE
ENCODING 1198
SWIDTH 670 0
DWIDTH 7 0
BBX 6 8 0 0
BITMAP
CC
CC
78
78
30
30
30
30
ENDCHAR
STARTCHAR uni04AF
ENCODING 1199
SWIDTH 578 0
DWIDTH 7 0
BBX 6 8 0 -2
BITMAP
CC
CC
78
78
30
30
30
30
ENDCHAR
STARTCHAR uni04B0
ENCODING 1200
SWIDTH 670 0
DWIDTH 7 0
BBX 6 8 0 0
BITMAP
CC
CC
78
78
30
78
30
30
ENDCHAR
STARTCHAR uni04B1
ENCODING 1201
SWIDTH 578 0
DWIDTH 7 0
BBX 6 8 0 -2
BITMAP
CC
CC
78
78
30
78
30
30
ENDCHAR
STARTCHAR uni04BA
ENCODING 1210
SWIDTH 640 0
DWIDTH 7 0
BBX 6 8 0 0
BITMAP
C0
C0
C0
F8
CC
CC
CC
CC
ENDCHAR
STARTCHAR uni04BB
ENCODING 1211
SWIDTH 640 0
DWIDTH 7 0
BBX 6 7 0 0
BITMAP
C0
C0
C0
F8
CC
CC
CC
ENDCHAR
STARTCHAR uni04D8
ENCODING 1240
SWIDTH 770 0
DWIDTH 9 0
BBX 8 8 0 0
BITMAP
3C
06
03
FF
C3
C3
66
3C
ENDCHAR
STARTCHAR afii10846
ENCODING 1241
SWIDTH 617 0
DWIDTH 7 0
BBX 6 6 0 0
BITMAP
38
0C
FC
CC
CC
78
ENDCHAR
STARTCHAR uni04E8
ENCODING 1256
SWIDTH 770 0
DWIDTH 9 0
BBX 8 8 0 0
BITMAP
3C
66
C3
FF
C3
C3
66
3C
ENDCHAR
STARTCHAR uni04E9
ENCODING 1257
SWIDTH 617 0
DWIDTH 7 0
BBX 6 6 0 0
BITMAP
78
CC
FC
CC
CC
78
ENDCHAR
STARTCHAR endash
ENCODING 8211
SWIDTH 636 0
DWIDTH 7 0
BBX 7 1 0 3
BITMAP
FE
ENDCHAR
STARTCHAR emdash
ENCODING 8212
SWIDTH 909 0
DWIDTH 11 0
BBX 11 1 0 3
BITMAP
FFE0
ENDCHAR
STARTCHAR quoteleft
ENCODING 8216
SWIDTH 275 0
DWIDTH 3 0
BBX 3 3 0 6
BITMAP
C0
C0
60
ENDCHAR
STARTCHAR quoteright
ENCODING 8217
SWIDTH 275 0
DWIDTH 3 0
BBX 3 3 0 6
BITMAP
60
60
C0
ENDCHAR
STARTCHAR quotesinglbase
ENCODING 8218
SWIDTH 275 0
DWIDTH 3 0
BBX 3 3 0 -1
BITMAP
60
60
C0
ENDCHAR
STARTCHAR quotedblleft
ENCODING 8220
SWIDTH 489 0
DWIDTH 5 0
BBX 5 3 0 6
BITMAP
F0
F0
78
ENDCHAR
STARTCHAR quotedblright
ENCODING 8221
SWIDTH 489 0
DWIDTH 5 0
BBX 5 3 0 6
BITMAP
78
78
F0
ENDCHAR
STARTCHAR quotedblbase
ENCODING 8222
SWIDTH 489 0
DWIDTH 5 0
BBX 5 3 0 -1
BITMAP
78
78
F0
ENDCHAR
STARTCHAR dagger
ENCODING 8224
SWIDTH 636 0
DWIDTH 7 0
BBX 6 8 0 1
BITMAP
30
30
FC
30
30
30
30
30
ENDCHAR
STARTCHAR daggerdbl
ENCODING 8225
SWIDTH 636 0
DWIDTH 7 0
BBX 6 8 0 1
BITMAP
30
30
FC
30
30
FC
30
30
ENDCHAR
STARTCHAR bullet
ENCODING 8226
SWIDTH 636 0
DWIDTH 6 0
BBX 5 4 0 1
BITMAP
70
F8
F8
70
ENDCHAR
STARTCHAR ellipsis
ENCODING 8230
SWIDTH 1000 0
DWIDTH 10 0
BBX 8 1 1 0
BITMAP
DB
ENDCHAR
STARTCHAR perthousand
ENCODING 8240
SWIDTH 1675 0
DWIDTH 16 0
BBX 16 8 0 0
BITMAP
7300
DB00
DE00
7600
0DCE
0F7B
1B7B
19CE
ENDCHAR
STARTCHAR guilsinglleft
ENCODING 8249
SWIDTH 424 0
DWIDTH 5 0
BBX 4 5 0 1
BITMAP
30
60
C0
60
30
ENDCHAR
STARTCHAR guilsinglright
ENCODING 8250
SWIDTH 424 0
DWIDTH 5 0
BBX 4 5 0 1
BITMAP
C0
60
30
60
C0
ENDCHAR
STARTCHAR Euro
ENCODING 8364
SWIDTH 636 0
DWIDTH 7 0
BBX 6 8 0 0
BITMAP
7C
C0
FC
C0
FC
C0
60
3C
ENDCHAR
STARTCHAR afii61352
ENCODING 8470
SWIDTH 770 0
DWIDTH 8 0
BBX 8 8 0 0
BITMAP
CD
ED
EC
FD
FC
DC
DC
CC
ENDCHAR
STARTCHAR trademark
ENCODING 8482
SWIDTH 860 0
DWIDTH 11 0
BBX 10 4 0 4
BITMAP
FCC0
6FC0
6FC0
6CC0
ENDCHAR
STARTCHAR uni2126
ENCODING 8486
SWIDTH 769 0
DWIDTH 9 0
BBX 7 8 0 0
BITMAP
38
44
82
82
82
82
44
EE
ENDCHAR
STARTCHAR oneeighth
ENCODING 8539
SWIDTH 1127 0
DWIDTH 12 0
BBX 9 8 1 0
BITMAP
C400
4400
4800
4B80
F480
1300
2480
2380
ENDCHAR
STARTCHAR threeeighths
ENCODING 8540
SWIDTH 1127 0
DWIDTH 12 0
BBX 9 8 1 0
BITMAP
E000
2400
C800
2F80
F480
1300
2480
2780
ENDCHAR
STARTCHAR fiveeighths
ENCODING 8541
SWIDTH 1127 0
DWIDTH 12 0
BBX 9 8 1 0
BITMAP
E000
8400
6800
2B80
3480
5300
2480
2380
ENDCHAR
STARTCHAR seveneighths
ENCODING 8542
SWIDTH 1127 0
DWIDTH 7 0
BBX 9 8 1 0
BITMAP
E400
2800
4800
5780
9480
2300
2480
4780
ENDCHAR
STARTCHAR partialdiff
ENCODING 8706
SWIDTH 636 0
DWIDTH 7 0
BBX 5 9 0 -1
BITMAP
30
48
08
68
D8
88
98
90
60
ENDCHAR
STARTCHAR uni2206
ENCODING 8710
SWIDTH 704 0
DWIDTH 8 0
BBX 7 8 0 0
BITMAP
10
28
28
28
44
44
42
FE
ENDCHAR
STARTCHAR product
ENCODING 8719
SWIDTH 785 0
DWIDTH 8 0
BBX 5 9 1 -1
BITMAP
F8
88
88
88
88
88
88
88
88
ENDCHAR
STARTCHAR summation
ENCODING 8721
SWIDTH 709 0
DWIDTH 8 0
BBX 5 9 1 -1
BITMAP
F8
C0
40
20
10
20
40
80
F8
ENDCHAR
STARTCHAR minus
ENCODING 8722
SWIDTH 818 0
DWIDTH 9 0
BBX 6 1 1 3
BITMAP
FC
ENDCHAR
STARTCHAR uni2215
ENCODING 8725
SWIDTH 432 0
DWIDTH 5 0
BBX 5 8 0 0
BITMAP
08
10
10
20
20
40
40
80
ENDCHAR
STARTCHAR uni2219
ENCODING 8729
SWIDTH 636 0
DWIDTH 4 0
BBX 1 1 1 3
BITMAP
80
ENDCHAR
STARTCHAR radical
ENCODING 8730
SWIDTH 818 0
DWIDTH 9 0
BBX 7 11 1 -1
BITMAP
02
04
04
04
08
C8
50
50
30
20
20
ENDCHAR
STARTCHAR infinity
ENCODING 8734
SWIDTH 1000 0
DWIDTH 11 0
BBX 9 5 0 1
BITMAP
6700
9480
8880
9880
7700
ENDCHAR
STARTCHAR integral
ENCODING 8747
SWIDTH 636 0
DWIDTH 7 0
BBX 5 11 0 -2
BITMAP
18
28
20
20
20
20
20
20
20
A0
C0
ENDCHAR
STARTCHAR approxequal
ENCODING 8776
SWIDTH 818 0
DWIDTH 9 0
BBX 6 4 1 2
BITMAP
64
98
64
98
ENDCHAR
STARTCHAR notequal
ENCODING 8800
SWIDTH 818 0
DWIDTH 9 0
BBX 6 5 1 1
BITMAP
08
FC
20
FC
40
ENDCHAR
STARTCHAR lessequal
ENCODING 8804
SWIDTH 818 0
DWIDTH 9 0
BBX 6 6 1 0
BITMAP
1C
E0
E0
1C
00
FC
ENDCHAR
STARTCHAR greaterequal
ENCODING 8805
SWIDTH 818 0
DWIDTH 9 0
BBX 6 6 1 0
BITMAP
E0
1C
1C
E0
00
FC
ENDCHAR
STARTCHAR lozenge
ENCODING 9674
SWIDTH 818 0
DWIDTH 9 0
BBX 6 10 1 -2
BITMAP
30
50
48
88
84
84
88
48
50
30
ENDCHAR
STARTCHAR uniFB01
ENCODING 64257
SWIDTH 677 0
DWIDTH 7 0
BBX 6 8 0 0
BITMAP
74
40
FC
44
44
44
44
44
ENDCHAR
STARTCHAR uniFB02
ENCODING 64258
SWIDTH 684 0
DWIDTH 7 0
BBX 6 8 0 0
BITMAP
7C
44
F4
44
44
44
44
44
ENDCHAR
STARTCHAR ch269
ENCODING -1
SWIDTH 317 0
DWIDTH 4 0
BBX 2 1 1 3
BITMAP
C0
ENDCHAR
ENDFONT
